<?xml version="1.0" standalone="no"?>
<!DOCTYPE svg PUBLIC "-//W3C//DTD SVG 20010904//EN"
 "http://www.w3.org/TR/2001/REC-SVG-20010904/DTD/svg10.dtd">
<svg version="1.0" xmlns="http://www.w3.org/2000/svg"
 width="2048.000000pt" height="2048.000000pt" viewBox="0 0 2048.000000 2048.000000"
 preserveAspectRatio="xMidYMid meet">
<metadata>
Created by potrace 1.16, written by Peter Selinger 2001-2019
</metadata>
<g transform="translate(0.000000,2048.000000) scale(0.100000,-0.100000)"
fill="#2d3748" stroke="none">
<path d="M7078 14563 l-618 -3 0 -4330 0 -4330 925 0 925 0 -2 4333 -3 4332
-305 0 c-168 0 -583 -1 -922 -2z M13168 14563 l-717 -3 -69 -83 c-39 -45 -261
-311 -495 -592 -234 -280 -642 -769 -908 -1086 -266 -317 -671 -801 -899
-1075 -343 -413 -825 -988 -1287 -1538 l-83 -100 0 -660 1 -661 27 30 c15 17
148 172 296 344 l269 312 27 -28 c30 -31 914 -1040 1445 -1648 187 -214 624
-713 970 -1109 347 -395 638 -729 648 -742 l19 -24 1229 0 1229 0 -262 298
c-144 163 -382 432 -528 597 -394 444 -1237 1398 -1534 1735 -143 162 -445
502 -671 754 -856 959 -769 856 -747 880 55 62 303 354 662 781 222 264 510
604 638 755 129 151 543 640 920 1085 900 1062 922 1089 1230 1448 145 170
265 314 268 322 6 15 40 14 -1678 8z"/>
</g>
</svg>
